<mxfile host="app.diagrams.net" modified="2023-08-07T08:43:51.592Z" agent="Mozilla/5.0 (Macintosh; Intel Mac OS X 10_15_7) AppleWebKit/537.36 (KHTML, like Gecko) Chrome/115.0.0.0 Safari/537.36" etag="Kfo5xh0p29JkN0TkJRRI" version="21.6.6" type="github" pages="3">
  <diagram name="模型-爆红包" id="RSKxBo_dg0qpYYjJsVa4">
    <mxGraphModel dx="954" dy="553" grid="1" gridSize="10" guides="1" tooltips="1" connect="1" arrows="1" fold="1" page="1" pageScale="1" pageWidth="827" pageHeight="1169" math="0" shadow="0">
      <root>
        <mxCell id="0" />
        <mxCell id="1" parent="0" />
        <mxCell id="voPBvHbVcS1l0eXUDo_d-43" value="mp活动&lt;br&gt;alsc_activity" style="rounded=0;whiteSpace=wrap;html=1;fillColor=#f0a30a;fontColor=#000000;strokeColor=#BD7000;" vertex="1" parent="1">
          <mxGeometry x="604" y="240" width="140" height="45" as="geometry" />
        </mxCell>
        <mxCell id="voPBvHbVcS1l0eXUDo_d-44" style="edgeStyle=orthogonalEdgeStyle;rounded=0;orthogonalLoop=1;jettySize=auto;html=1;exitX=0.5;exitY=1;exitDx=0;exitDy=0;entryX=0.5;entryY=0;entryDx=0;entryDy=0;endArrow=none;endFill=0;" edge="1" parent="1" source="voPBvHbVcS1l0eXUDo_d-47" target="voPBvHbVcS1l0eXUDo_d-53">
          <mxGeometry relative="1" as="geometry" />
        </mxCell>
        <mxCell id="voPBvHbVcS1l0eXUDo_d-45" value="1" style="edgeLabel;html=1;align=center;verticalAlign=middle;resizable=0;points=[];" vertex="1" connectable="0" parent="voPBvHbVcS1l0eXUDo_d-44">
          <mxGeometry x="-0.8611" y="3" relative="1" as="geometry">
            <mxPoint y="7" as="offset" />
          </mxGeometry>
        </mxCell>
        <mxCell id="voPBvHbVcS1l0eXUDo_d-46" value="n" style="edgeLabel;html=1;align=center;verticalAlign=middle;resizable=0;points=[];" vertex="1" connectable="0" parent="voPBvHbVcS1l0eXUDo_d-44">
          <mxGeometry x="0.7222" y="4" relative="1" as="geometry">
            <mxPoint x="1" y="-9" as="offset" />
          </mxGeometry>
        </mxCell>
        <mxCell id="voPBvHbVcS1l0eXUDo_d-124" value="" style="edgeStyle=orthogonalEdgeStyle;rounded=0;orthogonalLoop=1;jettySize=auto;html=1;endArrow=none;endFill=0;" edge="1" parent="1" source="voPBvHbVcS1l0eXUDo_d-47" target="voPBvHbVcS1l0eXUDo_d-53">
          <mxGeometry relative="1" as="geometry" />
        </mxCell>
        <mxCell id="voPBvHbVcS1l0eXUDo_d-47" value="mp优惠&lt;br&gt;alsc_promo" style="rounded=0;whiteSpace=wrap;html=1;fillColor=#f0a30a;fontColor=#000000;strokeColor=#BD7000;" vertex="1" parent="1">
          <mxGeometry x="604" y="348" width="140" height="45" as="geometry" />
        </mxCell>
        <mxCell id="voPBvHbVcS1l0eXUDo_d-48" value="弹内券活动&lt;br&gt;rights_activity" style="rounded=0;whiteSpace=wrap;html=1;fillColor=#fad9d5;strokeColor=#ae4132;" vertex="1" parent="1">
          <mxGeometry x="827" y="240" width="140" height="45" as="geometry" />
        </mxCell>
        <mxCell id="voPBvHbVcS1l0eXUDo_d-49" value="弹内券模板&lt;br&gt;rights.template" style="rounded=0;whiteSpace=wrap;html=1;fillColor=#fad9d5;strokeColor=#ae4132;" vertex="1" parent="1">
          <mxGeometry x="827" y="348" width="140" height="45" as="geometry" />
        </mxCell>
        <mxCell id="voPBvHbVcS1l0eXUDo_d-50" style="edgeStyle=orthogonalEdgeStyle;rounded=0;orthogonalLoop=1;jettySize=auto;html=1;exitX=0.5;exitY=1;exitDx=0;exitDy=0;entryX=0.5;entryY=0;entryDx=0;entryDy=0;endArrow=none;endFill=0;" edge="1" parent="1" source="voPBvHbVcS1l0eXUDo_d-53" target="voPBvHbVcS1l0eXUDo_d-54">
          <mxGeometry relative="1" as="geometry" />
        </mxCell>
        <mxCell id="voPBvHbVcS1l0eXUDo_d-51" value="1" style="edgeLabel;html=1;align=center;verticalAlign=middle;resizable=0;points=[];" vertex="1" connectable="0" parent="voPBvHbVcS1l0eXUDo_d-50">
          <mxGeometry x="-0.7714" relative="1" as="geometry">
            <mxPoint x="6" y="2" as="offset" />
          </mxGeometry>
        </mxCell>
        <mxCell id="voPBvHbVcS1l0eXUDo_d-52" value="1..n" style="edgeLabel;html=1;align=center;verticalAlign=middle;resizable=0;points=[];" vertex="1" connectable="0" parent="voPBvHbVcS1l0eXUDo_d-50">
          <mxGeometry x="0.6857" relative="1" as="geometry">
            <mxPoint x="13" as="offset" />
          </mxGeometry>
        </mxCell>
        <mxCell id="voPBvHbVcS1l0eXUDo_d-53" value="mp分组&lt;br&gt;alsc_group" style="rounded=0;whiteSpace=wrap;html=1;fillColor=#f0a30a;fontColor=#000000;strokeColor=#BD7000;" vertex="1" parent="1">
          <mxGeometry x="604" y="460" width="140" height="45" as="geometry" />
        </mxCell>
        <mxCell id="voPBvHbVcS1l0eXUDo_d-54" value="mp元素&lt;br&gt;alsc_element" style="rounded=0;whiteSpace=wrap;html=1;fillColor=#f0a30a;fontColor=#000000;strokeColor=#BD7000;" vertex="1" parent="1">
          <mxGeometry x="604" y="570" width="140" height="45" as="geometry" />
        </mxCell>
        <mxCell id="voPBvHbVcS1l0eXUDo_d-55" value="rights分组" style="rounded=0;whiteSpace=wrap;html=1;fillColor=#fad9d5;strokeColor=#ae4132;" vertex="1" parent="1">
          <mxGeometry x="827" y="460" width="140" height="45" as="geometry" />
        </mxCell>
        <mxCell id="voPBvHbVcS1l0eXUDo_d-56" value="rights分组元素" style="rounded=0;whiteSpace=wrap;html=1;fillColor=#fad9d5;strokeColor=#ae4132;" vertex="1" parent="1">
          <mxGeometry x="827" y="570" width="140" height="45" as="geometry" />
        </mxCell>
        <mxCell id="voPBvHbVcS1l0eXUDo_d-65" value="" style="endArrow=none;html=1;rounded=0;exitX=0.5;exitY=1;exitDx=0;exitDy=0;entryX=0.5;entryY=0;entryDx=0;entryDy=0;" edge="1" parent="1" source="voPBvHbVcS1l0eXUDo_d-43" target="voPBvHbVcS1l0eXUDo_d-47">
          <mxGeometry relative="1" as="geometry">
            <mxPoint x="663.5" y="280" as="sourcePoint" />
            <mxPoint x="663.5" y="348" as="targetPoint" />
          </mxGeometry>
        </mxCell>
        <mxCell id="voPBvHbVcS1l0eXUDo_d-66" value="1" style="resizable=0;html=1;align=left;verticalAlign=bottom;" connectable="0" vertex="1" parent="voPBvHbVcS1l0eXUDo_d-65">
          <mxGeometry x="-1" relative="1" as="geometry">
            <mxPoint y="20" as="offset" />
          </mxGeometry>
        </mxCell>
        <mxCell id="voPBvHbVcS1l0eXUDo_d-67" value="1" style="resizable=0;html=1;align=right;verticalAlign=bottom;" connectable="0" vertex="1" parent="voPBvHbVcS1l0eXUDo_d-65">
          <mxGeometry x="1" relative="1" as="geometry">
            <mxPoint x="10" as="offset" />
          </mxGeometry>
        </mxCell>
        <mxCell id="voPBvHbVcS1l0eXUDo_d-68" value="" style="endArrow=none;html=1;rounded=0;exitX=0.5;exitY=1;exitDx=0;exitDy=0;entryX=0.5;entryY=0;entryDx=0;entryDy=0;" edge="1" parent="1" source="voPBvHbVcS1l0eXUDo_d-48" target="voPBvHbVcS1l0eXUDo_d-49">
          <mxGeometry relative="1" as="geometry">
            <mxPoint x="884" y="280" as="sourcePoint" />
            <mxPoint x="884" y="348" as="targetPoint" />
          </mxGeometry>
        </mxCell>
        <mxCell id="voPBvHbVcS1l0eXUDo_d-69" value="1" style="resizable=0;html=1;align=left;verticalAlign=bottom;" connectable="0" vertex="1" parent="voPBvHbVcS1l0eXUDo_d-68">
          <mxGeometry x="-1" relative="1" as="geometry">
            <mxPoint y="20" as="offset" />
          </mxGeometry>
        </mxCell>
        <mxCell id="voPBvHbVcS1l0eXUDo_d-70" value="1" style="resizable=0;html=1;align=right;verticalAlign=bottom;" connectable="0" vertex="1" parent="voPBvHbVcS1l0eXUDo_d-68">
          <mxGeometry x="1" relative="1" as="geometry">
            <mxPoint x="10" as="offset" />
          </mxGeometry>
        </mxCell>
        <mxCell id="voPBvHbVcS1l0eXUDo_d-71" value="" style="endArrow=none;html=1;rounded=0;exitX=0.5;exitY=1;exitDx=0;exitDy=0;entryX=0.5;entryY=0;entryDx=0;entryDy=0;" edge="1" parent="1" source="voPBvHbVcS1l0eXUDo_d-49" target="voPBvHbVcS1l0eXUDo_d-55">
          <mxGeometry relative="1" as="geometry">
            <mxPoint x="884" y="390" as="sourcePoint" />
            <mxPoint x="884" y="458" as="targetPoint" />
          </mxGeometry>
        </mxCell>
        <mxCell id="voPBvHbVcS1l0eXUDo_d-72" value="1" style="resizable=0;html=1;align=left;verticalAlign=bottom;" connectable="0" vertex="1" parent="voPBvHbVcS1l0eXUDo_d-71">
          <mxGeometry x="-1" relative="1" as="geometry">
            <mxPoint y="20" as="offset" />
          </mxGeometry>
        </mxCell>
        <mxCell id="voPBvHbVcS1l0eXUDo_d-73" value="n" style="resizable=0;html=1;align=right;verticalAlign=bottom;" connectable="0" vertex="1" parent="voPBvHbVcS1l0eXUDo_d-71">
          <mxGeometry x="1" relative="1" as="geometry">
            <mxPoint x="10" as="offset" />
          </mxGeometry>
        </mxCell>
        <mxCell id="voPBvHbVcS1l0eXUDo_d-74" value="" style="endArrow=none;html=1;rounded=0;exitX=0.5;exitY=1;exitDx=0;exitDy=0;entryX=0.5;entryY=0;entryDx=0;entryDy=0;" edge="1" parent="1" source="voPBvHbVcS1l0eXUDo_d-55" target="voPBvHbVcS1l0eXUDo_d-56">
          <mxGeometry relative="1" as="geometry">
            <mxPoint x="884" y="500" as="sourcePoint" />
            <mxPoint x="884" y="568" as="targetPoint" />
          </mxGeometry>
        </mxCell>
        <mxCell id="voPBvHbVcS1l0eXUDo_d-75" value="1" style="resizable=0;html=1;align=left;verticalAlign=bottom;" connectable="0" vertex="1" parent="voPBvHbVcS1l0eXUDo_d-74">
          <mxGeometry x="-1" relative="1" as="geometry">
            <mxPoint y="20" as="offset" />
          </mxGeometry>
        </mxCell>
        <mxCell id="voPBvHbVcS1l0eXUDo_d-76" value="1..n" style="resizable=0;html=1;align=right;verticalAlign=bottom;" connectable="0" vertex="1" parent="voPBvHbVcS1l0eXUDo_d-74">
          <mxGeometry x="1" relative="1" as="geometry">
            <mxPoint x="25" as="offset" />
          </mxGeometry>
        </mxCell>
        <mxCell id="voPBvHbVcS1l0eXUDo_d-77" value="" style="endArrow=none;html=1;rounded=0;exitX=1;exitY=0.5;exitDx=0;exitDy=0;entryX=0;entryY=0.5;entryDx=0;entryDy=0;" edge="1" parent="1" source="voPBvHbVcS1l0eXUDo_d-47" target="voPBvHbVcS1l0eXUDo_d-49">
          <mxGeometry relative="1" as="geometry">
            <mxPoint x="727" y="367.5" as="sourcePoint" />
            <mxPoint x="827" y="368" as="targetPoint" />
          </mxGeometry>
        </mxCell>
        <mxCell id="voPBvHbVcS1l0eXUDo_d-78" value="1" style="resizable=0;html=1;align=left;verticalAlign=bottom;" connectable="0" vertex="1" parent="voPBvHbVcS1l0eXUDo_d-77">
          <mxGeometry x="-1" relative="1" as="geometry">
            <mxPoint x="10" as="offset" />
          </mxGeometry>
        </mxCell>
        <mxCell id="voPBvHbVcS1l0eXUDo_d-79" value="1" style="resizable=0;html=1;align=right;verticalAlign=bottom;" connectable="0" vertex="1" parent="voPBvHbVcS1l0eXUDo_d-77">
          <mxGeometry x="1" relative="1" as="geometry">
            <mxPoint x="-10" as="offset" />
          </mxGeometry>
        </mxCell>
        <mxCell id="voPBvHbVcS1l0eXUDo_d-80" value="" style="endArrow=none;html=1;rounded=0;entryX=0;entryY=0.5;entryDx=0;entryDy=0;" edge="1" parent="1">
          <mxGeometry relative="1" as="geometry">
            <mxPoint x="744" y="480" as="sourcePoint" />
            <mxPoint x="827" y="479.5" as="targetPoint" />
          </mxGeometry>
        </mxCell>
        <mxCell id="voPBvHbVcS1l0eXUDo_d-81" value="1" style="resizable=0;html=1;align=left;verticalAlign=bottom;" connectable="0" vertex="1" parent="voPBvHbVcS1l0eXUDo_d-80">
          <mxGeometry x="-1" relative="1" as="geometry">
            <mxPoint x="10" as="offset" />
          </mxGeometry>
        </mxCell>
        <mxCell id="voPBvHbVcS1l0eXUDo_d-82" value="1" style="resizable=0;html=1;align=right;verticalAlign=bottom;" connectable="0" vertex="1" parent="voPBvHbVcS1l0eXUDo_d-80">
          <mxGeometry x="1" relative="1" as="geometry">
            <mxPoint x="-10" as="offset" />
          </mxGeometry>
        </mxCell>
        <mxCell id="voPBvHbVcS1l0eXUDo_d-83" value="" style="endArrow=none;html=1;rounded=0;entryX=0;entryY=0.5;entryDx=0;entryDy=0;dashed=1;" edge="1" parent="1">
          <mxGeometry relative="1" as="geometry">
            <mxPoint x="744" y="590" as="sourcePoint" />
            <mxPoint x="827.0000000000005" y="589.37" as="targetPoint" />
          </mxGeometry>
        </mxCell>
        <mxCell id="voPBvHbVcS1l0eXUDo_d-84" value="1" style="resizable=0;html=1;align=left;verticalAlign=bottom;" connectable="0" vertex="1" parent="voPBvHbVcS1l0eXUDo_d-83">
          <mxGeometry x="-1" relative="1" as="geometry">
            <mxPoint x="10" as="offset" />
          </mxGeometry>
        </mxCell>
        <mxCell id="voPBvHbVcS1l0eXUDo_d-85" value="1" style="resizable=0;html=1;align=right;verticalAlign=bottom;" connectable="0" vertex="1" parent="voPBvHbVcS1l0eXUDo_d-83">
          <mxGeometry x="1" relative="1" as="geometry">
            <mxPoint x="-10" as="offset" />
          </mxGeometry>
        </mxCell>
        <mxCell id="voPBvHbVcS1l0eXUDo_d-86" value="玩法参与关系&lt;br&gt;play_apply" style="rounded=0;whiteSpace=wrap;html=1;fillColor=#fad7ac;strokeColor=#b46504;" vertex="1" parent="1">
          <mxGeometry x="310" y="348" width="140" height="45" as="geometry" />
        </mxCell>
        <mxCell id="voPBvHbVcS1l0eXUDo_d-87" style="edgeStyle=none;rounded=0;orthogonalLoop=1;jettySize=auto;html=1;exitX=0.5;exitY=1;exitDx=0;exitDy=0;entryX=0.5;entryY=0;entryDx=0;entryDy=0;dashed=1;fontSize=12;endArrow=none;endFill=0;" edge="1" parent="1" source="voPBvHbVcS1l0eXUDo_d-88" target="voPBvHbVcS1l0eXUDo_d-107">
          <mxGeometry relative="1" as="geometry" />
        </mxCell>
        <mxCell id="voPBvHbVcS1l0eXUDo_d-88" value="玩法限制规则&lt;br&gt;play_limit_rule" style="rounded=0;whiteSpace=wrap;html=1;fillColor=#fad7ac;strokeColor=#b46504;" vertex="1" parent="1">
          <mxGeometry x="310" y="138" width="140" height="45" as="geometry" />
        </mxCell>
        <mxCell id="voPBvHbVcS1l0eXUDo_d-89" value="招商主活动&lt;br&gt;campaign" style="rounded=0;whiteSpace=wrap;html=1;fillColor=#dae8fc;strokeColor=#6c8ebf;" vertex="1" parent="1">
          <mxGeometry x="30" y="30" width="140" height="45" as="geometry" />
        </mxCell>
        <mxCell id="voPBvHbVcS1l0eXUDo_d-90" value="招商子活动&lt;br&gt;sub_campaign" style="rounded=0;whiteSpace=wrap;html=1;fillColor=#dae8fc;strokeColor=#6c8ebf;" vertex="1" parent="1">
          <mxGeometry x="30" y="138" width="140" height="45" as="geometry" />
        </mxCell>
        <mxCell id="voPBvHbVcS1l0eXUDo_d-91" value="" style="endArrow=none;html=1;rounded=0;exitX=0.5;exitY=1;exitDx=0;exitDy=0;" edge="1" parent="1" source="voPBvHbVcS1l0eXUDo_d-89" target="voPBvHbVcS1l0eXUDo_d-90">
          <mxGeometry relative="1" as="geometry">
            <mxPoint x="160" y="60" as="sourcePoint" />
            <mxPoint x="250" y="60" as="targetPoint" />
          </mxGeometry>
        </mxCell>
        <mxCell id="voPBvHbVcS1l0eXUDo_d-92" value="1" style="resizable=0;html=1;align=left;verticalAlign=bottom;" connectable="0" vertex="1" parent="voPBvHbVcS1l0eXUDo_d-91">
          <mxGeometry x="-1" relative="1" as="geometry">
            <mxPoint y="20" as="offset" />
          </mxGeometry>
        </mxCell>
        <mxCell id="voPBvHbVcS1l0eXUDo_d-93" value="n" style="resizable=0;html=1;align=right;verticalAlign=bottom;" connectable="0" vertex="1" parent="voPBvHbVcS1l0eXUDo_d-91">
          <mxGeometry x="1" relative="1" as="geometry">
            <mxPoint x="10" as="offset" />
          </mxGeometry>
        </mxCell>
        <mxCell id="voPBvHbVcS1l0eXUDo_d-94" value="" style="endArrow=none;html=1;rounded=0;exitX=0.5;exitY=1;exitDx=0;exitDy=0;entryX=0.5;entryY=0;entryDx=0;entryDy=0;" edge="1" parent="1" source="voPBvHbVcS1l0eXUDo_d-107" target="voPBvHbVcS1l0eXUDo_d-86">
          <mxGeometry relative="1" as="geometry">
            <mxPoint x="369.5" y="278" as="sourcePoint" />
            <mxPoint x="369.5" y="346" as="targetPoint" />
          </mxGeometry>
        </mxCell>
        <mxCell id="voPBvHbVcS1l0eXUDo_d-95" value="1" style="resizable=0;html=1;align=left;verticalAlign=bottom;" connectable="0" vertex="1" parent="voPBvHbVcS1l0eXUDo_d-94">
          <mxGeometry x="-1" relative="1" as="geometry">
            <mxPoint y="20" as="offset" />
          </mxGeometry>
        </mxCell>
        <mxCell id="voPBvHbVcS1l0eXUDo_d-96" value="n" style="resizable=0;html=1;align=right;verticalAlign=bottom;" connectable="0" vertex="1" parent="voPBvHbVcS1l0eXUDo_d-94">
          <mxGeometry x="1" relative="1" as="geometry">
            <mxPoint x="10" as="offset" />
          </mxGeometry>
        </mxCell>
        <mxCell id="voPBvHbVcS1l0eXUDo_d-97" value="" style="endArrow=none;html=1;rounded=0;exitX=1;exitY=0.5;exitDx=0;exitDy=0;" edge="1" parent="1" source="voPBvHbVcS1l0eXUDo_d-90" target="voPBvHbVcS1l0eXUDo_d-88">
          <mxGeometry relative="1" as="geometry">
            <mxPoint x="150" y="157.5" as="sourcePoint" />
            <mxPoint x="240" y="157.5" as="targetPoint" />
          </mxGeometry>
        </mxCell>
        <mxCell id="voPBvHbVcS1l0eXUDo_d-98" value="1" style="resizable=0;html=1;align=left;verticalAlign=bottom;" connectable="0" vertex="1" parent="voPBvHbVcS1l0eXUDo_d-97">
          <mxGeometry x="-1" relative="1" as="geometry">
            <mxPoint x="10" as="offset" />
          </mxGeometry>
        </mxCell>
        <mxCell id="voPBvHbVcS1l0eXUDo_d-100" style="edgeStyle=orthogonalEdgeStyle;rounded=0;orthogonalLoop=1;jettySize=auto;html=1;exitX=0.5;exitY=1;exitDx=0;exitDy=0;fontSize=12;endArrow=none;endFill=0;" edge="1" parent="1" source="voPBvHbVcS1l0eXUDo_d-103" target="voPBvHbVcS1l0eXUDo_d-111">
          <mxGeometry relative="1" as="geometry" />
        </mxCell>
        <mxCell id="voPBvHbVcS1l0eXUDo_d-101" value="1" style="edgeLabel;html=1;align=center;verticalAlign=middle;resizable=0;points=[];fontSize=12;" vertex="1" connectable="0" parent="voPBvHbVcS1l0eXUDo_d-100">
          <mxGeometry x="-0.7913" y="1" relative="1" as="geometry">
            <mxPoint x="3" y="7" as="offset" />
          </mxGeometry>
        </mxCell>
        <mxCell id="voPBvHbVcS1l0eXUDo_d-102" value="n" style="edgeLabel;html=1;align=center;verticalAlign=middle;resizable=0;points=[];fontSize=12;" vertex="1" connectable="0" parent="voPBvHbVcS1l0eXUDo_d-100">
          <mxGeometry x="0.7565" y="3" relative="1" as="geometry">
            <mxPoint x="1" y="-7" as="offset" />
          </mxGeometry>
        </mxCell>
        <mxCell id="voPBvHbVcS1l0eXUDo_d-103" value="招商报名单&lt;br&gt;apply" style="rounded=0;whiteSpace=wrap;html=1;fillColor=#dae8fc;strokeColor=#6c8ebf;" vertex="1" parent="1">
          <mxGeometry x="30" y="240" width="140" height="45" as="geometry" />
        </mxCell>
        <mxCell id="voPBvHbVcS1l0eXUDo_d-104" value="" style="endArrow=none;html=1;rounded=0;" edge="1" parent="1" source="voPBvHbVcS1l0eXUDo_d-90" target="voPBvHbVcS1l0eXUDo_d-103">
          <mxGeometry relative="1" as="geometry">
            <mxPoint x="89" y="176" as="sourcePoint" />
            <mxPoint x="89" y="244" as="targetPoint" />
          </mxGeometry>
        </mxCell>
        <mxCell id="voPBvHbVcS1l0eXUDo_d-105" value="1" style="resizable=0;html=1;align=left;verticalAlign=bottom;" connectable="0" vertex="1" parent="voPBvHbVcS1l0eXUDo_d-104">
          <mxGeometry x="-1" relative="1" as="geometry">
            <mxPoint y="20" as="offset" />
          </mxGeometry>
        </mxCell>
        <mxCell id="voPBvHbVcS1l0eXUDo_d-106" value="n" style="resizable=0;html=1;align=right;verticalAlign=bottom;" connectable="0" vertex="1" parent="voPBvHbVcS1l0eXUDo_d-104">
          <mxGeometry x="1" relative="1" as="geometry">
            <mxPoint x="10" as="offset" />
          </mxGeometry>
        </mxCell>
        <mxCell id="voPBvHbVcS1l0eXUDo_d-118" style="edgeStyle=orthogonalEdgeStyle;rounded=0;orthogonalLoop=1;jettySize=auto;html=1;exitX=1;exitY=0.5;exitDx=0;exitDy=0;entryX=0;entryY=0.5;entryDx=0;entryDy=0;endArrow=none;endFill=0;" edge="1" parent="1" source="voPBvHbVcS1l0eXUDo_d-107" target="voPBvHbVcS1l0eXUDo_d-43">
          <mxGeometry relative="1" as="geometry" />
        </mxCell>
        <mxCell id="voPBvHbVcS1l0eXUDo_d-107" value="玩法实例&lt;br&gt;play_instance" style="rounded=0;whiteSpace=wrap;html=1;fillColor=#fad7ac;strokeColor=#b46504;" vertex="1" parent="1">
          <mxGeometry x="310" y="240" width="140" height="45" as="geometry" />
        </mxCell>
        <mxCell id="voPBvHbVcS1l0eXUDo_d-108" value="" style="endArrow=none;html=1;rounded=0;" edge="1" parent="1" source="voPBvHbVcS1l0eXUDo_d-103" target="voPBvHbVcS1l0eXUDo_d-107">
          <mxGeometry relative="1" as="geometry">
            <mxPoint x="150" y="259.5" as="sourcePoint" />
            <mxPoint x="240" y="259.5" as="targetPoint" />
          </mxGeometry>
        </mxCell>
        <mxCell id="voPBvHbVcS1l0eXUDo_d-109" value="1" style="resizable=0;html=1;align=left;verticalAlign=bottom;" connectable="0" vertex="1" parent="voPBvHbVcS1l0eXUDo_d-108">
          <mxGeometry x="-1" relative="1" as="geometry">
            <mxPoint x="10" as="offset" />
          </mxGeometry>
        </mxCell>
        <mxCell id="voPBvHbVcS1l0eXUDo_d-110" value="" style="resizable=0;html=1;align=right;verticalAlign=bottom;" connectable="0" vertex="1" parent="voPBvHbVcS1l0eXUDo_d-108">
          <mxGeometry x="1" relative="1" as="geometry">
            <mxPoint x="60" as="offset" />
          </mxGeometry>
        </mxCell>
        <mxCell id="voPBvHbVcS1l0eXUDo_d-111" value="招商报名关系&lt;br&gt;chain_relation_shop" style="rounded=0;whiteSpace=wrap;html=1;fillColor=#dae8fc;strokeColor=#6c8ebf;" vertex="1" parent="1">
          <mxGeometry x="30" y="348" width="140" height="45" as="geometry" />
        </mxCell>
        <mxCell id="voPBvHbVcS1l0eXUDo_d-112" value="1" style="text;html=1;align=center;verticalAlign=middle;resizable=0;points=[];autosize=1;strokeColor=none;fillColor=none;" vertex="1" parent="1">
          <mxGeometry x="267" y="240" width="30" height="30" as="geometry" />
        </mxCell>
        <mxCell id="voPBvHbVcS1l0eXUDo_d-113" value="1" style="text;html=1;align=center;verticalAlign=middle;resizable=0;points=[];autosize=1;strokeColor=none;fillColor=none;" vertex="1" parent="1">
          <mxGeometry x="267" y="138" width="30" height="30" as="geometry" />
        </mxCell>
        <mxCell id="voPBvHbVcS1l0eXUDo_d-114" value="" style="endArrow=none;html=1;rounded=0;entryX=0;entryY=0.5;entryDx=0;entryDy=0;" edge="1" parent="1" target="voPBvHbVcS1l0eXUDo_d-86">
          <mxGeometry relative="1" as="geometry">
            <mxPoint x="170" y="370" as="sourcePoint" />
            <mxPoint x="310" y="362" as="targetPoint" />
          </mxGeometry>
        </mxCell>
        <mxCell id="voPBvHbVcS1l0eXUDo_d-115" value="1" style="resizable=0;html=1;align=left;verticalAlign=bottom;" connectable="0" vertex="1" parent="voPBvHbVcS1l0eXUDo_d-114">
          <mxGeometry x="-1" relative="1" as="geometry">
            <mxPoint x="10" as="offset" />
          </mxGeometry>
        </mxCell>
        <mxCell id="voPBvHbVcS1l0eXUDo_d-116" value="" style="resizable=0;html=1;align=right;verticalAlign=bottom;" connectable="0" vertex="1" parent="voPBvHbVcS1l0eXUDo_d-114">
          <mxGeometry x="1" relative="1" as="geometry">
            <mxPoint x="60" as="offset" />
          </mxGeometry>
        </mxCell>
        <mxCell id="voPBvHbVcS1l0eXUDo_d-117" value="1" style="resizable=0;html=1;align=left;verticalAlign=bottom;" connectable="0" vertex="1" parent="1">
          <mxGeometry x="282" y="371.5" as="geometry" />
        </mxCell>
        <mxCell id="voPBvHbVcS1l0eXUDo_d-119" value="1" style="text;html=1;align=center;verticalAlign=middle;resizable=0;points=[];autosize=1;strokeColor=none;fillColor=none;" vertex="1" parent="1">
          <mxGeometry x="457" y="240" width="30" height="30" as="geometry" />
        </mxCell>
        <mxCell id="voPBvHbVcS1l0eXUDo_d-120" value="1" style="text;html=1;align=center;verticalAlign=middle;resizable=0;points=[];autosize=1;strokeColor=none;fillColor=none;" vertex="1" parent="1">
          <mxGeometry x="561" y="240" width="30" height="30" as="geometry" />
        </mxCell>
        <mxCell id="voPBvHbVcS1l0eXUDo_d-121" style="edgeStyle=orthogonalEdgeStyle;rounded=0;orthogonalLoop=1;jettySize=auto;html=1;exitX=0.5;exitY=1;exitDx=0;exitDy=0;entryX=0;entryY=0.5;entryDx=0;entryDy=0;endArrow=none;endFill=0;dashed=1;" edge="1" parent="1" source="voPBvHbVcS1l0eXUDo_d-86" target="voPBvHbVcS1l0eXUDo_d-53">
          <mxGeometry relative="1" as="geometry">
            <mxPoint x="460" y="273" as="sourcePoint" />
            <mxPoint x="630" y="273" as="targetPoint" />
          </mxGeometry>
        </mxCell>
        <mxCell id="voPBvHbVcS1l0eXUDo_d-122" value="1" style="text;html=1;align=center;verticalAlign=middle;resizable=0;points=[];autosize=1;strokeColor=none;fillColor=none;" vertex="1" parent="1">
          <mxGeometry x="370" y="400" width="30" height="30" as="geometry" />
        </mxCell>
        <mxCell id="voPBvHbVcS1l0eXUDo_d-123" value="1" style="text;html=1;align=center;verticalAlign=middle;resizable=0;points=[];autosize=1;strokeColor=none;fillColor=none;" vertex="1" parent="1">
          <mxGeometry x="568" y="458" width="30" height="30" as="geometry" />
        </mxCell>
      </root>
    </mxGraphModel>
  </diagram>
  <diagram id="e4fm686Wc6LZSbp-o0Te" name="模型-商户加码">
    <mxGraphModel dx="954" dy="553" grid="1" gridSize="10" guides="1" tooltips="1" connect="1" arrows="1" fold="1" page="1" pageScale="1" pageWidth="827" pageHeight="1169" math="0" shadow="0">
      <root>
        <mxCell id="0" />
        <mxCell id="1" parent="0" />
        <mxCell id="9oD-lEb431yJLbNIl3E1-1" value="mp活动alsc_activity" style="rounded=0;whiteSpace=wrap;html=1;fillColor=#f0a30a;fontColor=#000000;strokeColor=#BD7000;" vertex="1" parent="1">
          <mxGeometry x="724" y="10" width="140" height="45" as="geometry" />
        </mxCell>
        <mxCell id="9oD-lEb431yJLbNIl3E1-2" style="edgeStyle=orthogonalEdgeStyle;rounded=0;orthogonalLoop=1;jettySize=auto;html=1;exitX=0.5;exitY=1;exitDx=0;exitDy=0;entryX=0.5;entryY=0;entryDx=0;entryDy=0;endArrow=none;endFill=0;" edge="1" parent="1" source="9oD-lEb431yJLbNIl3E1-6" target="9oD-lEb431yJLbNIl3E1-12">
          <mxGeometry relative="1" as="geometry" />
        </mxCell>
        <mxCell id="9oD-lEb431yJLbNIl3E1-3" value="1" style="edgeLabel;html=1;align=center;verticalAlign=middle;resizable=0;points=[];" vertex="1" connectable="0" parent="9oD-lEb431yJLbNIl3E1-2">
          <mxGeometry x="-0.8611" y="3" relative="1" as="geometry">
            <mxPoint y="7" as="offset" />
          </mxGeometry>
        </mxCell>
        <mxCell id="9oD-lEb431yJLbNIl3E1-4" value="n" style="edgeLabel;html=1;align=center;verticalAlign=middle;resizable=0;points=[];" vertex="1" connectable="0" parent="9oD-lEb431yJLbNIl3E1-2">
          <mxGeometry x="0.7222" y="4" relative="1" as="geometry">
            <mxPoint x="1" y="-9" as="offset" />
          </mxGeometry>
        </mxCell>
        <mxCell id="9oD-lEb431yJLbNIl3E1-5" value="" style="edgeStyle=orthogonalEdgeStyle;rounded=0;orthogonalLoop=1;jettySize=auto;html=1;endArrow=none;endFill=0;" edge="1" parent="1" source="9oD-lEb431yJLbNIl3E1-6" target="9oD-lEb431yJLbNIl3E1-12">
          <mxGeometry relative="1" as="geometry" />
        </mxCell>
        <mxCell id="9oD-lEb431yJLbNIl3E1-6" value="mp优惠alsc_promo" style="rounded=0;whiteSpace=wrap;html=1;fillColor=#f0a30a;fontColor=#000000;strokeColor=#BD7000;" vertex="1" parent="1">
          <mxGeometry x="724" y="118" width="140" height="45" as="geometry" />
        </mxCell>
        <mxCell id="9oD-lEb431yJLbNIl3E1-7" value="弹内券活动&lt;br&gt;rights_activity" style="rounded=0;whiteSpace=wrap;html=1;fillColor=#fad9d5;strokeColor=#ae4132;" vertex="1" parent="1">
          <mxGeometry x="947" y="10" width="140" height="45" as="geometry" />
        </mxCell>
        <mxCell id="9oD-lEb431yJLbNIl3E1-8" value="弹内券模板&lt;br&gt;rights.template" style="rounded=0;whiteSpace=wrap;html=1;fillColor=#fad9d5;strokeColor=#ae4132;" vertex="1" parent="1">
          <mxGeometry x="947" y="118" width="140" height="45" as="geometry" />
        </mxCell>
        <mxCell id="9oD-lEb431yJLbNIl3E1-9" style="edgeStyle=orthogonalEdgeStyle;rounded=0;orthogonalLoop=1;jettySize=auto;html=1;exitX=0.5;exitY=1;exitDx=0;exitDy=0;entryX=0.5;entryY=0;entryDx=0;entryDy=0;endArrow=none;endFill=0;" edge="1" parent="1" source="9oD-lEb431yJLbNIl3E1-12" target="9oD-lEb431yJLbNIl3E1-13">
          <mxGeometry relative="1" as="geometry" />
        </mxCell>
        <mxCell id="9oD-lEb431yJLbNIl3E1-10" value="1" style="edgeLabel;html=1;align=center;verticalAlign=middle;resizable=0;points=[];" vertex="1" connectable="0" parent="9oD-lEb431yJLbNIl3E1-9">
          <mxGeometry x="-0.7714" relative="1" as="geometry">
            <mxPoint x="6" y="2" as="offset" />
          </mxGeometry>
        </mxCell>
        <mxCell id="9oD-lEb431yJLbNIl3E1-11" value="1..n" style="edgeLabel;html=1;align=center;verticalAlign=middle;resizable=0;points=[];" vertex="1" connectable="0" parent="9oD-lEb431yJLbNIl3E1-9">
          <mxGeometry x="0.6857" relative="1" as="geometry">
            <mxPoint x="13" as="offset" />
          </mxGeometry>
        </mxCell>
        <mxCell id="9oD-lEb431yJLbNIl3E1-12" value="mp分组&lt;br&gt;alsc_group" style="rounded=0;whiteSpace=wrap;html=1;fillColor=#f0a30a;fontColor=#000000;strokeColor=#BD7000;" vertex="1" parent="1">
          <mxGeometry x="724" y="230" width="140" height="45" as="geometry" />
        </mxCell>
        <mxCell id="9oD-lEb431yJLbNIl3E1-13" value="mp元素&lt;br&gt;alsc_element" style="rounded=0;whiteSpace=wrap;html=1;fillColor=#f0a30a;fontColor=#000000;strokeColor=#BD7000;" vertex="1" parent="1">
          <mxGeometry x="724" y="340" width="140" height="45" as="geometry" />
        </mxCell>
        <mxCell id="9oD-lEb431yJLbNIl3E1-14" value="rights分组" style="rounded=0;whiteSpace=wrap;html=1;fillColor=#fad9d5;strokeColor=#ae4132;" vertex="1" parent="1">
          <mxGeometry x="947" y="230" width="140" height="45" as="geometry" />
        </mxCell>
        <mxCell id="9oD-lEb431yJLbNIl3E1-15" value="rights分组元素" style="rounded=0;whiteSpace=wrap;html=1;fillColor=#fad9d5;strokeColor=#ae4132;" vertex="1" parent="1">
          <mxGeometry x="947" y="340" width="140" height="45" as="geometry" />
        </mxCell>
        <mxCell id="9oD-lEb431yJLbNIl3E1-16" value="" style="endArrow=none;html=1;rounded=0;exitX=0.5;exitY=1;exitDx=0;exitDy=0;entryX=0.5;entryY=0;entryDx=0;entryDy=0;" edge="1" parent="1" source="9oD-lEb431yJLbNIl3E1-1" target="9oD-lEb431yJLbNIl3E1-6">
          <mxGeometry relative="1" as="geometry">
            <mxPoint x="783.5" y="50" as="sourcePoint" />
            <mxPoint x="783.5" y="118" as="targetPoint" />
          </mxGeometry>
        </mxCell>
        <mxCell id="9oD-lEb431yJLbNIl3E1-17" value="1" style="resizable=0;html=1;align=left;verticalAlign=bottom;" connectable="0" vertex="1" parent="9oD-lEb431yJLbNIl3E1-16">
          <mxGeometry x="-1" relative="1" as="geometry">
            <mxPoint y="20" as="offset" />
          </mxGeometry>
        </mxCell>
        <mxCell id="9oD-lEb431yJLbNIl3E1-18" value="1" style="resizable=0;html=1;align=right;verticalAlign=bottom;" connectable="0" vertex="1" parent="9oD-lEb431yJLbNIl3E1-16">
          <mxGeometry x="1" relative="1" as="geometry">
            <mxPoint x="10" as="offset" />
          </mxGeometry>
        </mxCell>
        <mxCell id="9oD-lEb431yJLbNIl3E1-19" value="" style="endArrow=none;html=1;rounded=0;exitX=0.5;exitY=1;exitDx=0;exitDy=0;entryX=0.5;entryY=0;entryDx=0;entryDy=0;" edge="1" parent="1" source="9oD-lEb431yJLbNIl3E1-7" target="9oD-lEb431yJLbNIl3E1-8">
          <mxGeometry relative="1" as="geometry">
            <mxPoint x="1004" y="50" as="sourcePoint" />
            <mxPoint x="1004" y="118" as="targetPoint" />
          </mxGeometry>
        </mxCell>
        <mxCell id="9oD-lEb431yJLbNIl3E1-20" value="1" style="resizable=0;html=1;align=left;verticalAlign=bottom;" connectable="0" vertex="1" parent="9oD-lEb431yJLbNIl3E1-19">
          <mxGeometry x="-1" relative="1" as="geometry">
            <mxPoint y="20" as="offset" />
          </mxGeometry>
        </mxCell>
        <mxCell id="9oD-lEb431yJLbNIl3E1-21" value="1" style="resizable=0;html=1;align=right;verticalAlign=bottom;" connectable="0" vertex="1" parent="9oD-lEb431yJLbNIl3E1-19">
          <mxGeometry x="1" relative="1" as="geometry">
            <mxPoint x="10" as="offset" />
          </mxGeometry>
        </mxCell>
        <mxCell id="9oD-lEb431yJLbNIl3E1-22" value="" style="endArrow=none;html=1;rounded=0;exitX=0.5;exitY=1;exitDx=0;exitDy=0;entryX=0.5;entryY=0;entryDx=0;entryDy=0;" edge="1" parent="1" source="9oD-lEb431yJLbNIl3E1-8" target="9oD-lEb431yJLbNIl3E1-14">
          <mxGeometry relative="1" as="geometry">
            <mxPoint x="1004" y="160" as="sourcePoint" />
            <mxPoint x="1004" y="228" as="targetPoint" />
          </mxGeometry>
        </mxCell>
        <mxCell id="9oD-lEb431yJLbNIl3E1-23" value="1" style="resizable=0;html=1;align=left;verticalAlign=bottom;" connectable="0" vertex="1" parent="9oD-lEb431yJLbNIl3E1-22">
          <mxGeometry x="-1" relative="1" as="geometry">
            <mxPoint y="20" as="offset" />
          </mxGeometry>
        </mxCell>
        <mxCell id="9oD-lEb431yJLbNIl3E1-24" value="n" style="resizable=0;html=1;align=right;verticalAlign=bottom;" connectable="0" vertex="1" parent="9oD-lEb431yJLbNIl3E1-22">
          <mxGeometry x="1" relative="1" as="geometry">
            <mxPoint x="10" as="offset" />
          </mxGeometry>
        </mxCell>
        <mxCell id="9oD-lEb431yJLbNIl3E1-25" value="" style="endArrow=none;html=1;rounded=0;exitX=0.5;exitY=1;exitDx=0;exitDy=0;entryX=0.5;entryY=0;entryDx=0;entryDy=0;" edge="1" parent="1" source="9oD-lEb431yJLbNIl3E1-14" target="9oD-lEb431yJLbNIl3E1-15">
          <mxGeometry relative="1" as="geometry">
            <mxPoint x="1004" y="270" as="sourcePoint" />
            <mxPoint x="1004" y="338" as="targetPoint" />
          </mxGeometry>
        </mxCell>
        <mxCell id="9oD-lEb431yJLbNIl3E1-26" value="1" style="resizable=0;html=1;align=left;verticalAlign=bottom;" connectable="0" vertex="1" parent="9oD-lEb431yJLbNIl3E1-25">
          <mxGeometry x="-1" relative="1" as="geometry">
            <mxPoint y="20" as="offset" />
          </mxGeometry>
        </mxCell>
        <mxCell id="9oD-lEb431yJLbNIl3E1-27" value="1..n" style="resizable=0;html=1;align=right;verticalAlign=bottom;" connectable="0" vertex="1" parent="9oD-lEb431yJLbNIl3E1-25">
          <mxGeometry x="1" relative="1" as="geometry">
            <mxPoint x="25" as="offset" />
          </mxGeometry>
        </mxCell>
        <mxCell id="9oD-lEb431yJLbNIl3E1-28" value="" style="endArrow=none;html=1;rounded=0;exitX=1;exitY=0.5;exitDx=0;exitDy=0;entryX=0;entryY=0.5;entryDx=0;entryDy=0;" edge="1" parent="1" source="9oD-lEb431yJLbNIl3E1-6" target="9oD-lEb431yJLbNIl3E1-8">
          <mxGeometry relative="1" as="geometry">
            <mxPoint x="847" y="137.5" as="sourcePoint" />
            <mxPoint x="947" y="138" as="targetPoint" />
          </mxGeometry>
        </mxCell>
        <mxCell id="9oD-lEb431yJLbNIl3E1-29" value="1" style="resizable=0;html=1;align=left;verticalAlign=bottom;" connectable="0" vertex="1" parent="9oD-lEb431yJLbNIl3E1-28">
          <mxGeometry x="-1" relative="1" as="geometry">
            <mxPoint x="10" as="offset" />
          </mxGeometry>
        </mxCell>
        <mxCell id="9oD-lEb431yJLbNIl3E1-30" value="1" style="resizable=0;html=1;align=right;verticalAlign=bottom;" connectable="0" vertex="1" parent="9oD-lEb431yJLbNIl3E1-28">
          <mxGeometry x="1" relative="1" as="geometry">
            <mxPoint x="-10" as="offset" />
          </mxGeometry>
        </mxCell>
        <mxCell id="9oD-lEb431yJLbNIl3E1-31" value="" style="endArrow=none;html=1;rounded=0;entryX=0;entryY=0.5;entryDx=0;entryDy=0;" edge="1" parent="1">
          <mxGeometry relative="1" as="geometry">
            <mxPoint x="864" y="250" as="sourcePoint" />
            <mxPoint x="947" y="249.5" as="targetPoint" />
          </mxGeometry>
        </mxCell>
        <mxCell id="9oD-lEb431yJLbNIl3E1-32" value="1" style="resizable=0;html=1;align=left;verticalAlign=bottom;" connectable="0" vertex="1" parent="9oD-lEb431yJLbNIl3E1-31">
          <mxGeometry x="-1" relative="1" as="geometry">
            <mxPoint x="10" as="offset" />
          </mxGeometry>
        </mxCell>
        <mxCell id="9oD-lEb431yJLbNIl3E1-33" value="1" style="resizable=0;html=1;align=right;verticalAlign=bottom;" connectable="0" vertex="1" parent="9oD-lEb431yJLbNIl3E1-31">
          <mxGeometry x="1" relative="1" as="geometry">
            <mxPoint x="-10" as="offset" />
          </mxGeometry>
        </mxCell>
        <mxCell id="9oD-lEb431yJLbNIl3E1-34" value="" style="endArrow=none;html=1;rounded=0;entryX=0;entryY=0.5;entryDx=0;entryDy=0;dashed=1;" edge="1" parent="1">
          <mxGeometry relative="1" as="geometry">
            <mxPoint x="864" y="360" as="sourcePoint" />
            <mxPoint x="947.0000000000005" y="359.37" as="targetPoint" />
          </mxGeometry>
        </mxCell>
        <mxCell id="9oD-lEb431yJLbNIl3E1-35" value="1" style="resizable=0;html=1;align=left;verticalAlign=bottom;" connectable="0" vertex="1" parent="9oD-lEb431yJLbNIl3E1-34">
          <mxGeometry x="-1" relative="1" as="geometry">
            <mxPoint x="10" as="offset" />
          </mxGeometry>
        </mxCell>
        <mxCell id="9oD-lEb431yJLbNIl3E1-36" value="1" style="resizable=0;html=1;align=right;verticalAlign=bottom;" connectable="0" vertex="1" parent="9oD-lEb431yJLbNIl3E1-34">
          <mxGeometry x="1" relative="1" as="geometry">
            <mxPoint x="-10" as="offset" />
          </mxGeometry>
        </mxCell>
        <mxCell id="9oD-lEb431yJLbNIl3E1-37" value="玩法参与关系&lt;br&gt;play_apply" style="rounded=0;whiteSpace=wrap;html=1;fillColor=#fad7ac;strokeColor=#b46504;" vertex="1" parent="1">
          <mxGeometry x="430" y="118" width="140" height="45" as="geometry" />
        </mxCell>
        <mxCell id="9oD-lEb431yJLbNIl3E1-38" value="" style="endArrow=none;html=1;rounded=0;exitX=0.5;exitY=1;exitDx=0;exitDy=0;entryX=0.5;entryY=0;entryDx=0;entryDy=0;" edge="1" parent="1" source="9oD-lEb431yJLbNIl3E1-42" target="9oD-lEb431yJLbNIl3E1-37">
          <mxGeometry relative="1" as="geometry">
            <mxPoint x="489.5" y="48" as="sourcePoint" />
            <mxPoint x="489.5" y="116" as="targetPoint" />
          </mxGeometry>
        </mxCell>
        <mxCell id="9oD-lEb431yJLbNIl3E1-39" value="1" style="resizable=0;html=1;align=left;verticalAlign=bottom;" connectable="0" vertex="1" parent="9oD-lEb431yJLbNIl3E1-38">
          <mxGeometry x="-1" relative="1" as="geometry">
            <mxPoint y="20" as="offset" />
          </mxGeometry>
        </mxCell>
        <mxCell id="9oD-lEb431yJLbNIl3E1-40" value="n" style="resizable=0;html=1;align=right;verticalAlign=bottom;" connectable="0" vertex="1" parent="9oD-lEb431yJLbNIl3E1-38">
          <mxGeometry x="1" relative="1" as="geometry">
            <mxPoint x="10" as="offset" />
          </mxGeometry>
        </mxCell>
        <mxCell id="9oD-lEb431yJLbNIl3E1-41" style="edgeStyle=orthogonalEdgeStyle;rounded=0;orthogonalLoop=1;jettySize=auto;html=1;exitX=1;exitY=0.5;exitDx=0;exitDy=0;entryX=0;entryY=0.5;entryDx=0;entryDy=0;endArrow=none;endFill=0;" edge="1" parent="1" source="9oD-lEb431yJLbNIl3E1-42" target="9oD-lEb431yJLbNIl3E1-1">
          <mxGeometry relative="1" as="geometry" />
        </mxCell>
        <mxCell id="9oD-lEb431yJLbNIl3E1-42" value="玩法实例&lt;br&gt;play_instance" style="rounded=0;whiteSpace=wrap;html=1;fillColor=#fad7ac;strokeColor=#b46504;" vertex="1" parent="1">
          <mxGeometry x="430" y="10" width="140" height="45" as="geometry" />
        </mxCell>
        <mxCell id="9oD-lEb431yJLbNIl3E1-43" value="" style="resizable=0;html=1;align=right;verticalAlign=bottom;" connectable="0" vertex="1" parent="1">
          <mxGeometry x="490" y="32.5" as="geometry" />
        </mxCell>
        <mxCell id="9oD-lEb431yJLbNIl3E1-44" value="" style="resizable=0;html=1;align=right;verticalAlign=bottom;" connectable="0" vertex="1" parent="1">
          <mxGeometry x="489.99910715139845" y="140.49999681125496" as="geometry" />
        </mxCell>
        <mxCell id="9oD-lEb431yJLbNIl3E1-45" value="1" style="text;html=1;align=center;verticalAlign=middle;resizable=0;points=[];autosize=1;strokeColor=none;fillColor=none;" vertex="1" parent="1">
          <mxGeometry x="577" y="10" width="30" height="30" as="geometry" />
        </mxCell>
        <mxCell id="9oD-lEb431yJLbNIl3E1-46" value="1" style="text;html=1;align=center;verticalAlign=middle;resizable=0;points=[];autosize=1;strokeColor=none;fillColor=none;" vertex="1" parent="1">
          <mxGeometry x="681" y="10" width="30" height="30" as="geometry" />
        </mxCell>
        <mxCell id="9oD-lEb431yJLbNIl3E1-47" style="edgeStyle=orthogonalEdgeStyle;rounded=0;orthogonalLoop=1;jettySize=auto;html=1;exitX=0.5;exitY=1;exitDx=0;exitDy=0;entryX=0;entryY=0.5;entryDx=0;entryDy=0;endArrow=none;endFill=0;dashed=1;" edge="1" parent="1" source="9oD-lEb431yJLbNIl3E1-37" target="9oD-lEb431yJLbNIl3E1-12">
          <mxGeometry relative="1" as="geometry">
            <mxPoint x="580" y="43" as="sourcePoint" />
            <mxPoint x="750" y="43" as="targetPoint" />
          </mxGeometry>
        </mxCell>
        <mxCell id="9oD-lEb431yJLbNIl3E1-48" value="1" style="text;html=1;align=center;verticalAlign=middle;resizable=0;points=[];autosize=1;strokeColor=none;fillColor=none;" vertex="1" parent="1">
          <mxGeometry x="490" y="170" width="30" height="30" as="geometry" />
        </mxCell>
        <mxCell id="9oD-lEb431yJLbNIl3E1-49" value="1" style="text;html=1;align=center;verticalAlign=middle;resizable=0;points=[];autosize=1;strokeColor=none;fillColor=none;" vertex="1" parent="1">
          <mxGeometry x="688" y="228" width="30" height="30" as="geometry" />
        </mxCell>
        <mxCell id="j6Ad-U-3BNR45UZda7XY-7" style="edgeStyle=orthogonalEdgeStyle;rounded=0;orthogonalLoop=1;jettySize=auto;html=1;exitX=1;exitY=0.5;exitDx=0;exitDy=0;endArrow=none;endFill=0;" edge="1" parent="1" source="j6Ad-U-3BNR45UZda7XY-1" target="9oD-lEb431yJLbNIl3E1-42">
          <mxGeometry relative="1" as="geometry" />
        </mxCell>
        <mxCell id="j6Ad-U-3BNR45UZda7XY-12" style="rounded=0;orthogonalLoop=1;jettySize=auto;html=1;exitX=1;exitY=1;exitDx=0;exitDy=0;entryX=0;entryY=0;entryDx=0;entryDy=0;endArrow=none;endFill=0;" edge="1" parent="1" source="j6Ad-U-3BNR45UZda7XY-1" target="9oD-lEb431yJLbNIl3E1-37">
          <mxGeometry relative="1" as="geometry" />
        </mxCell>
        <mxCell id="j6Ad-U-3BNR45UZda7XY-14" value="1" style="edgeLabel;html=1;align=center;verticalAlign=middle;resizable=0;points=[];" vertex="1" connectable="0" parent="j6Ad-U-3BNR45UZda7XY-12">
          <mxGeometry x="-0.6091" y="-1" relative="1" as="geometry">
            <mxPoint x="1" y="12" as="offset" />
          </mxGeometry>
        </mxCell>
        <mxCell id="j6Ad-U-3BNR45UZda7XY-1" value="组合玩法&lt;br&gt;play_instance" style="rounded=0;whiteSpace=wrap;html=1;fillColor=#dae8fc;strokeColor=#6c8ebf;" vertex="1" parent="1">
          <mxGeometry x="130" y="10" width="140" height="45" as="geometry" />
        </mxCell>
        <mxCell id="j6Ad-U-3BNR45UZda7XY-2" value="组合关系&lt;br&gt;play_relation" style="rounded=0;whiteSpace=wrap;html=1;fillColor=#dae8fc;strokeColor=#6c8ebf;" vertex="1" parent="1">
          <mxGeometry x="130" y="118" width="140" height="45" as="geometry" />
        </mxCell>
        <mxCell id="j6Ad-U-3BNR45UZda7XY-3" value="" style="endArrow=none;html=1;rounded=0;exitX=0.5;exitY=1;exitDx=0;exitDy=0;" edge="1" parent="1" source="j6Ad-U-3BNR45UZda7XY-1" target="j6Ad-U-3BNR45UZda7XY-2">
          <mxGeometry relative="1" as="geometry">
            <mxPoint x="260" y="40" as="sourcePoint" />
            <mxPoint x="350" y="40" as="targetPoint" />
          </mxGeometry>
        </mxCell>
        <mxCell id="j6Ad-U-3BNR45UZda7XY-4" value="1" style="resizable=0;html=1;align=left;verticalAlign=bottom;" connectable="0" vertex="1" parent="j6Ad-U-3BNR45UZda7XY-3">
          <mxGeometry x="-1" relative="1" as="geometry">
            <mxPoint y="20" as="offset" />
          </mxGeometry>
        </mxCell>
        <mxCell id="j6Ad-U-3BNR45UZda7XY-5" value="n" style="resizable=0;html=1;align=right;verticalAlign=bottom;" connectable="0" vertex="1" parent="j6Ad-U-3BNR45UZda7XY-3">
          <mxGeometry x="1" relative="1" as="geometry">
            <mxPoint x="10" as="offset" />
          </mxGeometry>
        </mxCell>
        <mxCell id="j6Ad-U-3BNR45UZda7XY-9" value="1" style="text;html=1;align=center;verticalAlign=middle;resizable=0;points=[];autosize=1;strokeColor=none;fillColor=none;" vertex="1" parent="1">
          <mxGeometry x="287" y="10" width="30" height="30" as="geometry" />
        </mxCell>
        <mxCell id="j6Ad-U-3BNR45UZda7XY-10" value="n" style="text;html=1;align=center;verticalAlign=middle;resizable=0;points=[];autosize=1;strokeColor=none;fillColor=none;" vertex="1" parent="1">
          <mxGeometry x="387" y="10" width="30" height="30" as="geometry" />
        </mxCell>
        <mxCell id="j6Ad-U-3BNR45UZda7XY-15" value="n" style="text;html=1;align=center;verticalAlign=middle;resizable=0;points=[];autosize=1;strokeColor=none;fillColor=none;" vertex="1" parent="1">
          <mxGeometry x="377" y="100" width="30" height="30" as="geometry" />
        </mxCell>
        <mxCell id="6_AqevG88ArEikYGX5ir-1" value="方案一" style="text;html=1;align=center;verticalAlign=middle;resizable=0;points=[];autosize=1;strokeColor=none;fillColor=none;fontSize=18;fontStyle=1" vertex="1" parent="1">
          <mxGeometry x="15" y="12.5" width="80" height="40" as="geometry" />
        </mxCell>
        <mxCell id="lNdLsorLmEXpAfkVPSZl-2" style="rounded=0;orthogonalLoop=1;jettySize=auto;html=1;exitX=0;exitY=1;exitDx=0;exitDy=0;endArrow=none;endFill=0;edgeStyle=orthogonalEdgeStyle;" edge="1" parent="1" source="6_AqevG88ArEikYGX5ir-2" target="6_AqevG88ArEikYGX5ir-64">
          <mxGeometry relative="1" as="geometry" />
        </mxCell>
        <mxCell id="6_AqevG88ArEikYGX5ir-2" value="mp活动&lt;br&gt;alsc_activity" style="rounded=0;whiteSpace=wrap;html=1;fillColor=#f0a30a;fontColor=#000000;strokeColor=#BD7000;" vertex="1" parent="1">
          <mxGeometry x="541" y="483.5" width="140" height="45" as="geometry" />
        </mxCell>
        <mxCell id="6_AqevG88ArEikYGX5ir-3" style="edgeStyle=orthogonalEdgeStyle;rounded=0;orthogonalLoop=1;jettySize=auto;html=1;exitX=0.5;exitY=1;exitDx=0;exitDy=0;entryX=0.5;entryY=0;entryDx=0;entryDy=0;endArrow=none;endFill=0;" edge="1" parent="1" source="6_AqevG88ArEikYGX5ir-7" target="6_AqevG88ArEikYGX5ir-13">
          <mxGeometry relative="1" as="geometry" />
        </mxCell>
        <mxCell id="6_AqevG88ArEikYGX5ir-4" value="1" style="edgeLabel;html=1;align=center;verticalAlign=middle;resizable=0;points=[];" vertex="1" connectable="0" parent="6_AqevG88ArEikYGX5ir-3">
          <mxGeometry x="-0.8611" y="3" relative="1" as="geometry">
            <mxPoint y="7" as="offset" />
          </mxGeometry>
        </mxCell>
        <mxCell id="6_AqevG88ArEikYGX5ir-5" value="n" style="edgeLabel;html=1;align=center;verticalAlign=middle;resizable=0;points=[];" vertex="1" connectable="0" parent="6_AqevG88ArEikYGX5ir-3">
          <mxGeometry x="0.7222" y="4" relative="1" as="geometry">
            <mxPoint x="1" y="-9" as="offset" />
          </mxGeometry>
        </mxCell>
        <mxCell id="6_AqevG88ArEikYGX5ir-6" value="" style="edgeStyle=orthogonalEdgeStyle;rounded=0;orthogonalLoop=1;jettySize=auto;html=1;endArrow=none;endFill=0;" edge="1" parent="1" source="6_AqevG88ArEikYGX5ir-7" target="6_AqevG88ArEikYGX5ir-13">
          <mxGeometry relative="1" as="geometry" />
        </mxCell>
        <mxCell id="6_AqevG88ArEikYGX5ir-7" value="mp优惠&lt;br&gt;alsc_promo" style="rounded=0;whiteSpace=wrap;html=1;fillColor=#f0a30a;fontColor=#000000;strokeColor=#BD7000;" vertex="1" parent="1">
          <mxGeometry x="541" y="591.5" width="140" height="45" as="geometry" />
        </mxCell>
        <mxCell id="6_AqevG88ArEikYGX5ir-8" value="弹内券活动&lt;br&gt;rights_activity" style="rounded=0;whiteSpace=wrap;html=1;fillColor=#fad9d5;strokeColor=#ae4132;" vertex="1" parent="1">
          <mxGeometry x="764" y="483.5" width="140" height="45" as="geometry" />
        </mxCell>
        <mxCell id="lNdLsorLmEXpAfkVPSZl-8" style="edgeStyle=orthogonalEdgeStyle;rounded=0;orthogonalLoop=1;jettySize=auto;html=1;exitX=1;exitY=0.5;exitDx=0;exitDy=0;endArrow=none;endFill=0;" edge="1" parent="1" source="6_AqevG88ArEikYGX5ir-9" target="lNdLsorLmEXpAfkVPSZl-7">
          <mxGeometry relative="1" as="geometry" />
        </mxCell>
        <mxCell id="6_AqevG88ArEikYGX5ir-9" value="弹内券模板&lt;br&gt;rights.template" style="rounded=0;whiteSpace=wrap;html=1;fillColor=#fad9d5;strokeColor=#ae4132;" vertex="1" parent="1">
          <mxGeometry x="764" y="591.5" width="140" height="45" as="geometry" />
        </mxCell>
        <mxCell id="6_AqevG88ArEikYGX5ir-10" style="edgeStyle=orthogonalEdgeStyle;rounded=0;orthogonalLoop=1;jettySize=auto;html=1;exitX=0.5;exitY=1;exitDx=0;exitDy=0;entryX=0.5;entryY=0;entryDx=0;entryDy=0;endArrow=none;endFill=0;" edge="1" parent="1" source="6_AqevG88ArEikYGX5ir-13" target="6_AqevG88ArEikYGX5ir-14">
          <mxGeometry relative="1" as="geometry" />
        </mxCell>
        <mxCell id="6_AqevG88ArEikYGX5ir-11" value="1" style="edgeLabel;html=1;align=center;verticalAlign=middle;resizable=0;points=[];" vertex="1" connectable="0" parent="6_AqevG88ArEikYGX5ir-10">
          <mxGeometry x="-0.7714" relative="1" as="geometry">
            <mxPoint x="6" y="2" as="offset" />
          </mxGeometry>
        </mxCell>
        <mxCell id="6_AqevG88ArEikYGX5ir-12" value="1..n" style="edgeLabel;html=1;align=center;verticalAlign=middle;resizable=0;points=[];" vertex="1" connectable="0" parent="6_AqevG88ArEikYGX5ir-10">
          <mxGeometry x="0.6857" relative="1" as="geometry">
            <mxPoint x="13" as="offset" />
          </mxGeometry>
        </mxCell>
        <mxCell id="6_AqevG88ArEikYGX5ir-13" value="mp分组&lt;br&gt;alsc_group" style="rounded=0;whiteSpace=wrap;html=1;fillColor=#f0a30a;fontColor=#000000;strokeColor=#BD7000;" vertex="1" parent="1">
          <mxGeometry x="541" y="703.5" width="140" height="45" as="geometry" />
        </mxCell>
        <mxCell id="6_AqevG88ArEikYGX5ir-14" value="mp元素&lt;br&gt;alsc_element" style="rounded=0;whiteSpace=wrap;html=1;fillColor=#f0a30a;fontColor=#000000;strokeColor=#BD7000;" vertex="1" parent="1">
          <mxGeometry x="541" y="813.5" width="140" height="45" as="geometry" />
        </mxCell>
        <mxCell id="6_AqevG88ArEikYGX5ir-15" value="rights分组" style="rounded=0;whiteSpace=wrap;html=1;fillColor=#fad9d5;strokeColor=#ae4132;" vertex="1" parent="1">
          <mxGeometry x="764" y="703.5" width="140" height="45" as="geometry" />
        </mxCell>
        <mxCell id="6_AqevG88ArEikYGX5ir-16" value="rights分组元素" style="rounded=0;whiteSpace=wrap;html=1;fillColor=#fad9d5;strokeColor=#ae4132;" vertex="1" parent="1">
          <mxGeometry x="764" y="813.5" width="140" height="45" as="geometry" />
        </mxCell>
        <mxCell id="6_AqevG88ArEikYGX5ir-17" value="" style="endArrow=none;html=1;rounded=0;exitX=0.5;exitY=1;exitDx=0;exitDy=0;entryX=0.5;entryY=0;entryDx=0;entryDy=0;" edge="1" parent="1" source="6_AqevG88ArEikYGX5ir-2" target="6_AqevG88ArEikYGX5ir-7">
          <mxGeometry relative="1" as="geometry">
            <mxPoint x="600.5" y="523.5" as="sourcePoint" />
            <mxPoint x="600.5" y="591.5" as="targetPoint" />
          </mxGeometry>
        </mxCell>
        <mxCell id="6_AqevG88ArEikYGX5ir-18" value="1" style="resizable=0;html=1;align=left;verticalAlign=bottom;" connectable="0" vertex="1" parent="6_AqevG88ArEikYGX5ir-17">
          <mxGeometry x="-1" relative="1" as="geometry">
            <mxPoint y="20" as="offset" />
          </mxGeometry>
        </mxCell>
        <mxCell id="6_AqevG88ArEikYGX5ir-19" value="1" style="resizable=0;html=1;align=right;verticalAlign=bottom;" connectable="0" vertex="1" parent="6_AqevG88ArEikYGX5ir-17">
          <mxGeometry x="1" relative="1" as="geometry">
            <mxPoint x="10" as="offset" />
          </mxGeometry>
        </mxCell>
        <mxCell id="6_AqevG88ArEikYGX5ir-20" value="" style="endArrow=none;html=1;rounded=0;exitX=0.5;exitY=1;exitDx=0;exitDy=0;entryX=0.5;entryY=0;entryDx=0;entryDy=0;" edge="1" parent="1" source="6_AqevG88ArEikYGX5ir-8" target="6_AqevG88ArEikYGX5ir-9">
          <mxGeometry relative="1" as="geometry">
            <mxPoint x="821" y="523.5" as="sourcePoint" />
            <mxPoint x="821" y="591.5" as="targetPoint" />
          </mxGeometry>
        </mxCell>
        <mxCell id="6_AqevG88ArEikYGX5ir-21" value="1" style="resizable=0;html=1;align=left;verticalAlign=bottom;" connectable="0" vertex="1" parent="6_AqevG88ArEikYGX5ir-20">
          <mxGeometry x="-1" relative="1" as="geometry">
            <mxPoint y="20" as="offset" />
          </mxGeometry>
        </mxCell>
        <mxCell id="6_AqevG88ArEikYGX5ir-22" value="1" style="resizable=0;html=1;align=right;verticalAlign=bottom;" connectable="0" vertex="1" parent="6_AqevG88ArEikYGX5ir-20">
          <mxGeometry x="1" relative="1" as="geometry">
            <mxPoint x="10" as="offset" />
          </mxGeometry>
        </mxCell>
        <mxCell id="6_AqevG88ArEikYGX5ir-23" value="" style="endArrow=none;html=1;rounded=0;exitX=0.5;exitY=1;exitDx=0;exitDy=0;entryX=0.5;entryY=0;entryDx=0;entryDy=0;" edge="1" parent="1" source="6_AqevG88ArEikYGX5ir-9" target="6_AqevG88ArEikYGX5ir-15">
          <mxGeometry relative="1" as="geometry">
            <mxPoint x="821" y="633.5" as="sourcePoint" />
            <mxPoint x="821" y="701.5" as="targetPoint" />
          </mxGeometry>
        </mxCell>
        <mxCell id="6_AqevG88ArEikYGX5ir-24" value="1" style="resizable=0;html=1;align=left;verticalAlign=bottom;" connectable="0" vertex="1" parent="6_AqevG88ArEikYGX5ir-23">
          <mxGeometry x="-1" relative="1" as="geometry">
            <mxPoint y="20" as="offset" />
          </mxGeometry>
        </mxCell>
        <mxCell id="6_AqevG88ArEikYGX5ir-25" value="n" style="resizable=0;html=1;align=right;verticalAlign=bottom;" connectable="0" vertex="1" parent="6_AqevG88ArEikYGX5ir-23">
          <mxGeometry x="1" relative="1" as="geometry">
            <mxPoint x="10" as="offset" />
          </mxGeometry>
        </mxCell>
        <mxCell id="6_AqevG88ArEikYGX5ir-26" value="" style="endArrow=none;html=1;rounded=0;exitX=0.5;exitY=1;exitDx=0;exitDy=0;entryX=0.5;entryY=0;entryDx=0;entryDy=0;" edge="1" parent="1" source="6_AqevG88ArEikYGX5ir-15" target="6_AqevG88ArEikYGX5ir-16">
          <mxGeometry relative="1" as="geometry">
            <mxPoint x="821" y="743.5" as="sourcePoint" />
            <mxPoint x="821" y="811.5" as="targetPoint" />
          </mxGeometry>
        </mxCell>
        <mxCell id="6_AqevG88ArEikYGX5ir-27" value="1" style="resizable=0;html=1;align=left;verticalAlign=bottom;" connectable="0" vertex="1" parent="6_AqevG88ArEikYGX5ir-26">
          <mxGeometry x="-1" relative="1" as="geometry">
            <mxPoint y="20" as="offset" />
          </mxGeometry>
        </mxCell>
        <mxCell id="6_AqevG88ArEikYGX5ir-28" value="1..n" style="resizable=0;html=1;align=right;verticalAlign=bottom;" connectable="0" vertex="1" parent="6_AqevG88ArEikYGX5ir-26">
          <mxGeometry x="1" relative="1" as="geometry">
            <mxPoint x="25" as="offset" />
          </mxGeometry>
        </mxCell>
        <mxCell id="6_AqevG88ArEikYGX5ir-29" value="" style="endArrow=none;html=1;rounded=0;exitX=1;exitY=0.5;exitDx=0;exitDy=0;entryX=0;entryY=0.5;entryDx=0;entryDy=0;" edge="1" parent="1" source="6_AqevG88ArEikYGX5ir-7" target="6_AqevG88ArEikYGX5ir-9">
          <mxGeometry relative="1" as="geometry">
            <mxPoint x="664" y="611" as="sourcePoint" />
            <mxPoint x="764" y="611.5" as="targetPoint" />
          </mxGeometry>
        </mxCell>
        <mxCell id="6_AqevG88ArEikYGX5ir-30" value="1" style="resizable=0;html=1;align=left;verticalAlign=bottom;" connectable="0" vertex="1" parent="6_AqevG88ArEikYGX5ir-29">
          <mxGeometry x="-1" relative="1" as="geometry">
            <mxPoint x="10" as="offset" />
          </mxGeometry>
        </mxCell>
        <mxCell id="6_AqevG88ArEikYGX5ir-31" value="1" style="resizable=0;html=1;align=right;verticalAlign=bottom;" connectable="0" vertex="1" parent="6_AqevG88ArEikYGX5ir-29">
          <mxGeometry x="1" relative="1" as="geometry">
            <mxPoint x="-10" as="offset" />
          </mxGeometry>
        </mxCell>
        <mxCell id="6_AqevG88ArEikYGX5ir-32" value="" style="endArrow=none;html=1;rounded=0;entryX=0;entryY=0.5;entryDx=0;entryDy=0;" edge="1" parent="1">
          <mxGeometry relative="1" as="geometry">
            <mxPoint x="681" y="723.5" as="sourcePoint" />
            <mxPoint x="764" y="723" as="targetPoint" />
          </mxGeometry>
        </mxCell>
        <mxCell id="6_AqevG88ArEikYGX5ir-33" value="1" style="resizable=0;html=1;align=left;verticalAlign=bottom;" connectable="0" vertex="1" parent="6_AqevG88ArEikYGX5ir-32">
          <mxGeometry x="-1" relative="1" as="geometry">
            <mxPoint x="10" as="offset" />
          </mxGeometry>
        </mxCell>
        <mxCell id="6_AqevG88ArEikYGX5ir-34" value="1" style="resizable=0;html=1;align=right;verticalAlign=bottom;" connectable="0" vertex="1" parent="6_AqevG88ArEikYGX5ir-32">
          <mxGeometry x="1" relative="1" as="geometry">
            <mxPoint x="-10" as="offset" />
          </mxGeometry>
        </mxCell>
        <mxCell id="6_AqevG88ArEikYGX5ir-35" value="" style="endArrow=none;html=1;rounded=0;entryX=0;entryY=0.5;entryDx=0;entryDy=0;dashed=1;" edge="1" parent="1">
          <mxGeometry relative="1" as="geometry">
            <mxPoint x="681" y="833.5" as="sourcePoint" />
            <mxPoint x="764.0000000000005" y="832.87" as="targetPoint" />
          </mxGeometry>
        </mxCell>
        <mxCell id="6_AqevG88ArEikYGX5ir-36" value="1" style="resizable=0;html=1;align=left;verticalAlign=bottom;" connectable="0" vertex="1" parent="6_AqevG88ArEikYGX5ir-35">
          <mxGeometry x="-1" relative="1" as="geometry">
            <mxPoint x="10" as="offset" />
          </mxGeometry>
        </mxCell>
        <mxCell id="6_AqevG88ArEikYGX5ir-37" value="1" style="resizable=0;html=1;align=right;verticalAlign=bottom;" connectable="0" vertex="1" parent="6_AqevG88ArEikYGX5ir-35">
          <mxGeometry x="1" relative="1" as="geometry">
            <mxPoint x="-10" as="offset" />
          </mxGeometry>
        </mxCell>
        <mxCell id="6_AqevG88ArEikYGX5ir-38" value="玩法参与关系&lt;br&gt;play_apply" style="rounded=0;whiteSpace=wrap;html=1;fillColor=#fad7ac;strokeColor=#b46504;" vertex="1" parent="1">
          <mxGeometry x="130" y="591.5" width="140" height="45" as="geometry" />
        </mxCell>
        <mxCell id="6_AqevG88ArEikYGX5ir-39" value="" style="endArrow=none;html=1;rounded=0;exitX=0.5;exitY=1;exitDx=0;exitDy=0;entryX=0.5;entryY=0;entryDx=0;entryDy=0;" edge="1" parent="1" source="6_AqevG88ArEikYGX5ir-43" target="6_AqevG88ArEikYGX5ir-38">
          <mxGeometry relative="1" as="geometry">
            <mxPoint x="189.5" y="521.5" as="sourcePoint" />
            <mxPoint x="189.5" y="589.5" as="targetPoint" />
          </mxGeometry>
        </mxCell>
        <mxCell id="6_AqevG88ArEikYGX5ir-40" value="1" style="resizable=0;html=1;align=left;verticalAlign=bottom;" connectable="0" vertex="1" parent="6_AqevG88ArEikYGX5ir-39">
          <mxGeometry x="-1" relative="1" as="geometry">
            <mxPoint y="20" as="offset" />
          </mxGeometry>
        </mxCell>
        <mxCell id="6_AqevG88ArEikYGX5ir-41" value="n" style="resizable=0;html=1;align=right;verticalAlign=bottom;" connectable="0" vertex="1" parent="6_AqevG88ArEikYGX5ir-39">
          <mxGeometry x="1" relative="1" as="geometry">
            <mxPoint x="10" as="offset" />
          </mxGeometry>
        </mxCell>
        <mxCell id="6_AqevG88ArEikYGX5ir-42" style="edgeStyle=orthogonalEdgeStyle;rounded=0;orthogonalLoop=1;jettySize=auto;html=1;exitX=1;exitY=0.5;exitDx=0;exitDy=0;entryX=0;entryY=0.5;entryDx=0;entryDy=0;endArrow=none;endFill=0;" edge="1" parent="1" source="6_AqevG88ArEikYGX5ir-43" target="6_AqevG88ArEikYGX5ir-2">
          <mxGeometry relative="1" as="geometry" />
        </mxCell>
        <mxCell id="6_AqevG88ArEikYGX5ir-43" value="玩法实例&lt;br&gt;play_instance" style="rounded=0;whiteSpace=wrap;html=1;fillColor=#fad7ac;strokeColor=#b46504;" vertex="1" parent="1">
          <mxGeometry x="130" y="483.5" width="140" height="45" as="geometry" />
        </mxCell>
        <mxCell id="6_AqevG88ArEikYGX5ir-44" value="" style="resizable=0;html=1;align=right;verticalAlign=bottom;" connectable="0" vertex="1" parent="1">
          <mxGeometry x="190" y="506" as="geometry" />
        </mxCell>
        <mxCell id="6_AqevG88ArEikYGX5ir-45" value="" style="resizable=0;html=1;align=right;verticalAlign=bottom;" connectable="0" vertex="1" parent="1">
          <mxGeometry x="189.99910715139845" y="613.999996811255" as="geometry" />
        </mxCell>
        <mxCell id="6_AqevG88ArEikYGX5ir-46" value="1" style="text;html=1;align=center;verticalAlign=middle;resizable=0;points=[];autosize=1;strokeColor=none;fillColor=none;" vertex="1" parent="1">
          <mxGeometry x="277" y="483.5" width="30" height="30" as="geometry" />
        </mxCell>
        <mxCell id="6_AqevG88ArEikYGX5ir-47" value="1" style="text;html=1;align=center;verticalAlign=middle;resizable=0;points=[];autosize=1;strokeColor=none;fillColor=none;" vertex="1" parent="1">
          <mxGeometry x="498" y="483.5" width="30" height="30" as="geometry" />
        </mxCell>
        <mxCell id="6_AqevG88ArEikYGX5ir-48" style="edgeStyle=orthogonalEdgeStyle;rounded=0;orthogonalLoop=1;jettySize=auto;html=1;exitX=0.5;exitY=1;exitDx=0;exitDy=0;endArrow=none;endFill=0;" edge="1" parent="1" source="6_AqevG88ArEikYGX5ir-38" target="6_AqevG88ArEikYGX5ir-63">
          <mxGeometry relative="1" as="geometry">
            <mxPoint x="280" y="516.5" as="sourcePoint" />
            <mxPoint x="450" y="516.5" as="targetPoint" />
          </mxGeometry>
        </mxCell>
        <mxCell id="6_AqevG88ArEikYGX5ir-49" value="1" style="text;html=1;align=center;verticalAlign=middle;resizable=0;points=[];autosize=1;strokeColor=none;fillColor=none;" vertex="1" parent="1">
          <mxGeometry x="190" y="636.5" width="30" height="30" as="geometry" />
        </mxCell>
        <mxCell id="6_AqevG88ArEikYGX5ir-50" value="n" style="text;html=1;align=center;verticalAlign=middle;resizable=0;points=[];autosize=1;strokeColor=none;fillColor=none;" vertex="1" parent="1">
          <mxGeometry x="190" y="677.5" width="30" height="30" as="geometry" />
        </mxCell>
        <mxCell id="6_AqevG88ArEikYGX5ir-62" value="方案二" style="text;html=1;align=center;verticalAlign=middle;resizable=0;points=[];autosize=1;strokeColor=none;fillColor=none;fontSize=18;fontStyle=1" vertex="1" parent="1">
          <mxGeometry x="15" y="483.5" width="80" height="40" as="geometry" />
        </mxCell>
        <mxCell id="6_AqevG88ArEikYGX5ir-63" value="玩法加码规则&lt;br&gt;play_rule" style="rounded=0;whiteSpace=wrap;html=1;fillColor=#fad7ac;strokeColor=#b46504;" vertex="1" parent="1">
          <mxGeometry x="130" y="703.5" width="140" height="45" as="geometry" />
        </mxCell>
        <mxCell id="lNdLsorLmEXpAfkVPSZl-1" style="rounded=0;orthogonalLoop=1;jettySize=auto;html=1;exitX=0.5;exitY=1;exitDx=0;exitDy=0;entryX=1;entryY=0.5;entryDx=0;entryDy=0;endArrow=none;endFill=0;edgeStyle=orthogonalEdgeStyle;" edge="1" parent="1" source="6_AqevG88ArEikYGX5ir-64" target="6_AqevG88ArEikYGX5ir-63">
          <mxGeometry relative="1" as="geometry" />
        </mxCell>
        <mxCell id="lNdLsorLmEXpAfkVPSZl-12" style="edgeStyle=orthogonalEdgeStyle;rounded=0;orthogonalLoop=1;jettySize=auto;html=1;exitX=0.75;exitY=1;exitDx=0;exitDy=0;entryX=0.5;entryY=1;entryDx=0;entryDy=0;endArrow=none;endFill=0;" edge="1" parent="1" source="6_AqevG88ArEikYGX5ir-64" target="lNdLsorLmEXpAfkVPSZl-7">
          <mxGeometry relative="1" as="geometry">
            <Array as="points">
              <mxPoint x="465" y="892.5" />
              <mxPoint x="1058" y="892.5" />
            </Array>
          </mxGeometry>
        </mxCell>
        <mxCell id="lNdLsorLmEXpAfkVPSZl-14" value="1" style="edgeLabel;html=1;align=center;verticalAlign=middle;resizable=0;points=[];" vertex="1" connectable="0" parent="lNdLsorLmEXpAfkVPSZl-12">
          <mxGeometry x="-0.9674" y="4" relative="1" as="geometry">
            <mxPoint x="8" y="-3" as="offset" />
          </mxGeometry>
        </mxCell>
        <mxCell id="6_AqevG88ArEikYGX5ir-64" value="mp加码规则&lt;br&gt;alsc_rule" style="rounded=0;whiteSpace=wrap;html=1;fillColor=#f0a30a;fontColor=#000000;strokeColor=#BD7000;" vertex="1" parent="1">
          <mxGeometry x="360" y="591.5" width="140" height="45" as="geometry" />
        </mxCell>
        <mxCell id="lNdLsorLmEXpAfkVPSZl-3" value="1" style="text;html=1;align=center;verticalAlign=middle;resizable=0;points=[];autosize=1;strokeColor=none;fillColor=none;" vertex="1" parent="1">
          <mxGeometry x="424" y="632.5" width="30" height="30" as="geometry" />
        </mxCell>
        <mxCell id="lNdLsorLmEXpAfkVPSZl-4" value="1" style="text;html=1;align=center;verticalAlign=middle;resizable=0;points=[];autosize=1;strokeColor=none;fillColor=none;" vertex="1" parent="1">
          <mxGeometry x="274" y="722.5" width="30" height="30" as="geometry" />
        </mxCell>
        <mxCell id="lNdLsorLmEXpAfkVPSZl-5" value="1" style="text;html=1;align=center;verticalAlign=middle;resizable=0;points=[];autosize=1;strokeColor=none;fillColor=none;" vertex="1" parent="1">
          <mxGeometry x="517" y="526" width="30" height="30" as="geometry" />
        </mxCell>
        <mxCell id="lNdLsorLmEXpAfkVPSZl-6" value="n" style="text;html=1;align=center;verticalAlign=middle;resizable=0;points=[];autosize=1;strokeColor=none;fillColor=none;" vertex="1" parent="1">
          <mxGeometry x="424" y="562.5" width="30" height="30" as="geometry" />
        </mxCell>
        <mxCell id="lNdLsorLmEXpAfkVPSZl-7" value="弹内券加码规则&lt;br&gt;rights.rule" style="rounded=0;whiteSpace=wrap;html=1;fillColor=#fad9d5;strokeColor=#ae4132;" vertex="1" parent="1">
          <mxGeometry x="987.5" y="591.5" width="140" height="45" as="geometry" />
        </mxCell>
        <mxCell id="lNdLsorLmEXpAfkVPSZl-9" value="1" style="text;html=1;align=center;verticalAlign=middle;resizable=0;points=[];autosize=1;strokeColor=none;fillColor=none;" vertex="1" parent="1">
          <mxGeometry x="897" y="587.5" width="30" height="30" as="geometry" />
        </mxCell>
        <mxCell id="lNdLsorLmEXpAfkVPSZl-10" value="n" style="text;html=1;align=center;verticalAlign=middle;resizable=0;points=[];autosize=1;strokeColor=none;fillColor=none;" vertex="1" parent="1">
          <mxGeometry x="957.5" y="588" width="30" height="30" as="geometry" />
        </mxCell>
        <mxCell id="lNdLsorLmEXpAfkVPSZl-13" value="1" style="text;html=1;align=center;verticalAlign=middle;resizable=0;points=[];autosize=1;strokeColor=none;fillColor=none;" vertex="1" parent="1">
          <mxGeometry x="1054" y="642.5" width="30" height="30" as="geometry" />
        </mxCell>
      </root>
    </mxGraphModel>
  </diagram>
  <diagram id="qlC5qD-3KCqBC0Xkb9w3" name="商户加码链路">
    <mxGraphModel dx="1781" dy="553" grid="1" gridSize="10" guides="1" tooltips="1" connect="1" arrows="1" fold="1" page="1" pageScale="1" pageWidth="827" pageHeight="1169" math="0" shadow="0">
      <root>
        <mxCell id="0" />
        <mxCell id="1" parent="0" />
        <mxCell id="uHehWCUNlNpXZMAi0Twx-1" value="行业招商&lt;br&gt;play.zelda" style="rounded=0;whiteSpace=wrap;html=1;verticalAlign=top;" vertex="1" parent="1">
          <mxGeometry x="90" y="70" width="240" height="160" as="geometry" />
        </mxCell>
        <mxCell id="uHehWCUNlNpXZMAi0Twx-2" value="商户报名&lt;br&gt;play.dracarys" style="rounded=0;whiteSpace=wrap;html=1;verticalAlign=top;" vertex="1" parent="1">
          <mxGeometry x="430" y="70" width="240" height="130" as="geometry" />
        </mxCell>
        <mxCell id="uHehWCUNlNpXZMAi0Twx-3" value="行业营销玩法&lt;br&gt;play.doraemon" style="rounded=0;whiteSpace=wrap;html=1;verticalAlign=top;" vertex="1" parent="1">
          <mxGeometry x="220" y="280" width="240" height="120" as="geometry" />
        </mxCell>
        <mxCell id="uHehWCUNlNpXZMAi0Twx-4" value="招商邀约" style="rounded=1;whiteSpace=wrap;html=1;" vertex="1" parent="1">
          <mxGeometry x="120" y="130" width="80" height="30" as="geometry" />
        </mxCell>
        <mxCell id="uHehWCUNlNpXZMAi0Twx-5" value="频道管理" style="rounded=1;whiteSpace=wrap;html=1;" vertex="1" parent="1">
          <mxGeometry x="220" y="130" width="80" height="30" as="geometry" />
        </mxCell>
        <mxCell id="uHehWCUNlNpXZMAi0Twx-6" value="商户报名" style="rounded=1;whiteSpace=wrap;html=1;" vertex="1" parent="1">
          <mxGeometry x="120" y="180" width="80" height="30" as="geometry" />
        </mxCell>
        <mxCell id="uHehWCUNlNpXZMAi0Twx-7" value="供给池管理" style="rounded=1;whiteSpace=wrap;html=1;" vertex="1" parent="1">
          <mxGeometry x="220" y="180" width="80" height="30" as="geometry" />
        </mxCell>
        <mxCell id="uHehWCUNlNpXZMAi0Twx-8" value="规则管理" style="rounded=1;whiteSpace=wrap;html=1;" vertex="1" parent="1">
          <mxGeometry x="250" y="340" width="80" height="30" as="geometry" />
        </mxCell>
        <mxCell id="uHehWCUNlNpXZMAi0Twx-9" value="玩法管理" style="rounded=1;whiteSpace=wrap;html=1;" vertex="1" parent="1">
          <mxGeometry x="350" y="340" width="80" height="30" as="geometry" />
        </mxCell>
        <mxCell id="uHehWCUNlNpXZMAi0Twx-12" value="活动报名" style="rounded=1;whiteSpace=wrap;html=1;" vertex="1" parent="1">
          <mxGeometry x="450" y="130" width="80" height="30" as="geometry" />
        </mxCell>
        <mxCell id="uHehWCUNlNpXZMAi0Twx-13" value="商户加码" style="rounded=1;whiteSpace=wrap;html=1;" vertex="1" parent="1">
          <mxGeometry x="560" y="130" width="80" height="30" as="geometry" />
        </mxCell>
        <mxCell id="uHehWCUNlNpXZMAi0Twx-14" value="平台营销玩法&lt;br&gt;alsc.mp" style="rounded=0;whiteSpace=wrap;html=1;verticalAlign=top;" vertex="1" parent="1">
          <mxGeometry x="560" y="275" width="240" height="115" as="geometry" />
        </mxCell>
        <mxCell id="uHehWCUNlNpXZMAi0Twx-15" value="发券活动" style="rounded=1;whiteSpace=wrap;html=1;" vertex="1" parent="1">
          <mxGeometry x="590" y="330" width="80" height="30" as="geometry" />
        </mxCell>
        <mxCell id="uHehWCUNlNpXZMAi0Twx-16" value="供给活动" style="rounded=1;whiteSpace=wrap;html=1;" vertex="1" parent="1">
          <mxGeometry x="690" y="330" width="80" height="30" as="geometry" />
        </mxCell>
        <mxCell id="uHehWCUNlNpXZMAi0Twx-19" value="营销权益&lt;br&gt;alsc.rights" style="rounded=0;whiteSpace=wrap;html=1;verticalAlign=top;" vertex="1" parent="1">
          <mxGeometry x="560" y="460" width="240" height="220" as="geometry" />
        </mxCell>
        <mxCell id="uHehWCUNlNpXZMAi0Twx-20" value="券模板" style="rounded=1;whiteSpace=wrap;html=1;" vertex="1" parent="1">
          <mxGeometry x="590" y="515" width="80" height="30" as="geometry" />
        </mxCell>
        <mxCell id="uHehWCUNlNpXZMAi0Twx-21" value="供给活动" style="rounded=1;whiteSpace=wrap;html=1;" vertex="1" parent="1">
          <mxGeometry x="690" y="515" width="80" height="30" as="geometry" />
        </mxCell>
        <mxCell id="uHehWCUNlNpXZMAi0Twx-22" value="券实例" style="rounded=1;whiteSpace=wrap;html=1;" vertex="1" parent="1">
          <mxGeometry x="590" y="570" width="80" height="30" as="geometry" />
        </mxCell>
        <mxCell id="uHehWCUNlNpXZMAi0Twx-23" value="补贴转移" style="rounded=1;whiteSpace=wrap;html=1;" vertex="1" parent="1">
          <mxGeometry x="690" y="570" width="80" height="30" as="geometry" />
        </mxCell>
        <mxCell id="uHehWCUNlNpXZMAi0Twx-24" value="供给池管理" style="rounded=1;whiteSpace=wrap;html=1;" vertex="1" parent="1">
          <mxGeometry x="590" y="630" width="80" height="30" as="geometry" />
        </mxCell>
        <mxCell id="uHehWCUNlNpXZMAi0Twx-25" value="营销算价&lt;br&gt;alsc.mcc" style="rounded=0;whiteSpace=wrap;html=1;verticalAlign=top;" vertex="1" parent="1">
          <mxGeometry x="220" y="500" width="240" height="120" as="geometry" />
        </mxCell>
        <mxCell id="uHehWCUNlNpXZMAi0Twx-26" value="优惠咨询" style="rounded=1;whiteSpace=wrap;html=1;" vertex="1" parent="1">
          <mxGeometry x="250" y="560" width="80" height="30" as="geometry" />
        </mxCell>
        <mxCell id="uHehWCUNlNpXZMAi0Twx-27" value="动态加码" style="rounded=1;whiteSpace=wrap;html=1;" vertex="1" parent="1">
          <mxGeometry x="350" y="560" width="80" height="30" as="geometry" />
        </mxCell>
        <mxCell id="uHehWCUNlNpXZMAi0Twx-28" value="会场/店铺/提单" style="rounded=0;whiteSpace=wrap;html=1;verticalAlign=top;" vertex="1" parent="1">
          <mxGeometry x="-150" y="500" width="240" height="120" as="geometry" />
        </mxCell>
        <mxCell id="uHehWCUNlNpXZMAi0Twx-29" value="优惠咨询" style="rounded=1;whiteSpace=wrap;html=1;" vertex="1" parent="1">
          <mxGeometry x="-120" y="560" width="80" height="30" as="geometry" />
        </mxCell>
        <mxCell id="uHehWCUNlNpXZMAi0Twx-30" value="优惠核销" style="rounded=1;whiteSpace=wrap;html=1;" vertex="1" parent="1">
          <mxGeometry x="-20" y="560" width="80" height="30" as="geometry" />
        </mxCell>
        <mxCell id="uHehWCUNlNpXZMAi0Twx-31" value="百川&lt;br&gt;alsc-upp-mng" style="rounded=0;whiteSpace=wrap;html=1;verticalAlign=top;" vertex="1" parent="1">
          <mxGeometry x="-180" y="270" width="240" height="160" as="geometry" />
        </mxCell>
        <mxCell id="uHehWCUNlNpXZMAi0Twx-32" value="券模板" style="rounded=1;whiteSpace=wrap;html=1;" vertex="1" parent="1">
          <mxGeometry x="-150" y="330" width="80" height="30" as="geometry" />
        </mxCell>
        <mxCell id="uHehWCUNlNpXZMAi0Twx-33" value="关联会场" style="rounded=1;whiteSpace=wrap;html=1;" vertex="1" parent="1">
          <mxGeometry x="-50" y="330" width="80" height="30" as="geometry" />
        </mxCell>
        <mxCell id="uHehWCUNlNpXZMAi0Twx-34" value="关联供给池" style="rounded=1;whiteSpace=wrap;html=1;" vertex="1" parent="1">
          <mxGeometry x="-150" y="390" width="80" height="30" as="geometry" />
        </mxCell>
      </root>
    </mxGraphModel>
  </diagram>
</mxfile>
